<?xml version="1.0" encoding="utf-8"?>
<svg xmlns="http://www.w3.org/2000/svg" height="461" viewBox="0 0 1956 1844" width="489">
<path d="M1688.47 176.98 c-11.15 1.18 -31.07 4.73 -42.97 7.65 -13.8 3.39 -40.6 11.72&#xA;-55 17.1 -17.32 6.47 -39.69 16.02 -57.5 24.55 -15.64 7.49 -49.8 25.53 -71&#xA;37.5 -32.32 18.25 -74.56 44.84 -122.5 77.13 -25.75 17.34 -62.17 43.16 -88.5&#xA;62.74 -9.62 7.16 -18.12 13.76 -18.87 14.68 -.75 .92 -2.78 1.68 -4.5 1.69&#xA;l-3.13 .02 4.5 4.27 c2.7 2.56 7.3 5.42 11.5 7.15 3.85 1.58 11.95 5.09 18&#xA;7.79 6.05 2.7 12.48 5.4 14.29 6 2.7 .9 3.57 .8 4.91 -.54 1.37 -1.37 1.45&#xA;-1.84 .49 -3 -.91 -1.09 -.85 -1.77 .28 -3.38 .78 -1.11 4.93 -4.42 9.22&#xA;-7.36 4.3 -2.94 14.11 -9.92 21.81 -15.51 36.8 -26.71 92.68 -64.32 128.35&#xA;-86.39 20.51 -12.69 48.43 -28.77 75.15 -43.28 39.6 -21.5 82.7 -40.33 117.15&#xA;-51.17 9.54 -3 20.05 -6.15 23.35 -7 3.3 -.85 12.67 -2.69 20.81 -4.09 11.16&#xA;-1.92 18.34 -2.54 29.14 -2.54 12.34 0 15.53 .35 23.01 2.52 4.78 1.38 10.34&#xA;3.37 12.36 4.41 5.8 2.99 12.18 9 16.28 15.35 2.08 3.21 4.74 8.75 5.93 12.3&#xA;1.18 3.55 2.52 10.39 2.97 15.19 .92 9.85 -.24 28.48 -2.57 41.15 -2.71 14.76&#xA;-8.35 37.2 -12.58 50.09 -5.18 15.79 -14.99 40.9 -23.96 61.32 -10.91 24.85&#xA;-21.3 45.17 -43.58 85.21 -6.81 12.23 -16.97 29.07 -39.96 66.22 -3.66 5.91&#xA;-9.58 15.03 -13.17 20.25 -3.58 5.22 -12.23 17.84 -19.21 28.02 -6.98 10.19&#xA;-12.99 19.45 -13.35 20.58 -.43 1.36 -.05 2.57 1.11 3.56 .97 .83 4.46 2.97&#xA;7.76 4.77 3.3 1.8 10.18 6.43 15.3 10.3 l9.3 7.03 2.56 -2.38 c1.41 -1.31&#xA;10.78 -14.75 20.83 -29.88 16.88 -25.4 43.38 -66.98 51 -80 1.77 -3.03 5.59&#xA;-9.55 8.5 -14.5 17.33 -29.5 43.25 -79.63 54.39 -105.16 14.02 -32.14 25.55&#xA;-65.2 32.19 -92.22 2.48 -10.11 5.45 -23.61 6.6 -30 1.62 -9.04 2.11 -16.07&#xA;2.19 -31.62 .07 -13.36 -.34 -21.99 -1.23 -26 -2.5 -11.23 -8.12 -26.98&#xA;-12.38 -34.68 -2.34 -4.23 -6.38 -10.4 -8.97 -13.71 -7.37 -9.42 -20.15&#xA;-18.66 -32.94 -23.83 -3.42 -1.38 -11.38 -3.82 -17.7 -5.41 -8.86 -2.24&#xA;-14.46 -2.99 -24.56 -3.32 -7.19 -.23 -16.69 -.04 -21.11 .43z M1527.5 671.36&#xA;c-4.95 1.32 -10.8 3.15 -13 4.07 -8.46 3.54 -18.51 10.81 -26.25 18.99 -5.8&#xA;6.12 -9.26 10.92 -12.75 17.7 -2.64 5.11 -5.64 12.46 -6.67 16.34 -1.03 3.88&#xA;-2.15 10.91 -2.49 15.64 -.36 5.03 -.1 12.07 .61 16.98 .67 4.61 2.3 11.77&#xA;3.61 15.91 1.31 4.14 4.67 11.23 7.46 15.77 2.79 4.54 7.58 10.95 10.64 14.25&#xA;3.06 3.3 8.86 8.21 12.89 10.91 14.59 9.76 33.5 14.82 51.23 13.72 6.42 -.4&#xA;12.03 -1.5 18.22 -3.57 4.92 -1.65 11.54 -4.31 14.72 -5.92 3.18 -1.61 8.56&#xA;-4.97 11.97 -7.48 3.4 -2.51 8.69 -7.59 11.75 -11.3 3.06 -3.71 7.6 -10.69&#xA;10.1 -15.52 2.5 -4.83 5.48 -12.28 6.64 -16.56 1.63 -6.04 2.1 -10.67 2.09&#xA;-20.77 -.01 -8.43 -.58 -15.37 -1.62 -19.74 -.88 -3.71 -3.14 -9.78 -5.01&#xA;-13.5 -7.33 -14.54 -16.69 -25.99 -27.08 -33.14 -3.87 -2.67 -8.92 -5.8&#xA;-11.22 -6.97 -2.3 -1.16 -8.15 -3.29 -13 -4.72 -6.77 -2 -11.73 -2.7 -21.32&#xA;-3.04 -10.9 -.38 -13.65 -.13 -21.5 1.96z M1452.33 830.25 c-2.25 2.34 -14.58&#xA;16.84 -27.41 32.22 -21.56 25.86 -66.61 78.23 -83.47 97.03 -3.95 4.4 -13.63&#xA;15.2 -21.52 24 -38.17 42.57 -99.59 107.1 -150.42 158.03 -37.69 37.77 -85.11&#xA;83.48 -112 107.96 -71.93 65.49 -99.87 90.09 -143 125.96 -15.95 13.26 -33.5&#xA;27.73 -39 32.15 -12.88 10.35 -40.72 32.27 -51 40.15 -4.4 3.37 -13.62 10.49&#xA;-20.5 15.81 -6.88 5.32 -13.85 10.27 -15.5 10.99 -2.52 1.11 -3.07 1.28 -4.24&#xA;.14 -1.18 -1.15 -2.1 -1.12 -5.16 1.2 -16.82 12.8 -27.47 20.37 -30.35 21.58&#xA;-1.88 .78 -3.97 2.09 -4.64 2.91 -.97 1.17 -.97 1.89 .02 3.48 1.01 1.62 1&#xA;2.29 -.06 3.57 -.72 .86 -6.77 5.27 -13.44 9.78 -6.67 4.51 -16.64 11.4&#xA;-22.14 15.29 -11.79 8.35 -48.93 32.76 -66 43.38 -19.76 12.29 -43.16 26.26&#xA;-57.5 34.35 -30.1 16.96 -38.59 21.48 -63.5 33.78 -38.05 18.8 -68.85 31.57&#xA;-102.07 42.33 -15.33 4.97 -39.7 10.76 -57.43 13.66 -3.57 .58 -13.25 1.34&#xA;-21.5 1.67 -9.54 .39 -17.69 .18 -22.4 -.56 -4.07 -.64 -11.24 -2.81 -15.92&#xA;-4.82 -6.42 -2.76 -9.96 -5.07 -14.35 -9.37 -3.76 -3.68 -6.9 -7.99 -8.83&#xA;-12.11 -1.65 -3.52 -3.94 -10.65 -5.1 -15.85 -1.77 -7.95 -2.01 -11.51 -1.55&#xA;-22.45 .54 -12.78 4.24 -38.21 7.27 -50 4.38 -17.04 15.87 -48.75 26.54&#xA;-73.25 2.75 -6.31 9.03 -19.86 13.97 -30.11 12.74 -26.46 27.3 -53.05 47.44&#xA;-86.63 16.43 -27.4 27.85 -45.63 39.76 -63.5 16.11 -24.15 30.65 -45 50.3&#xA;-72.13 10.61 -14.64 19.93 -26.87 20.71 -27.17 .78 -.3 1.75 -.18 2.35 .42&#xA;.83 .83 1.61 .89 2.84 -.14 1.09 -.91 1.4 -2.16 .98 -3.91 -.35 -1.42 -2.56&#xA;-6.85 -4.92 -12.07 -2.36 -5.22 -5.82 -13.48 -7.68 -18.35 -2.09 -5.45 -4.87&#xA;-10.54 -7.23 -13.25 -2.11 -2.42 -4.25 -4.4 -4.75 -4.4 -.5 0 -.92 1.24 -.93&#xA;2.75 -.01 1.66 -1.07 3.74 -2.66 5.25 -3.27 3.09 -13.83 17.32 -39.49 53.21&#xA;-23.05 32.24 -43.08 61.72 -62.04 91.29 -13.24 20.65 -30.58 49.3 -40.56 67&#xA;-2.79 4.95 -7.38 13.05 -10.2 18 -7.29 12.81 -33.84 66.75 -39.86 81 -8.66&#xA;20.49 -16.65 42.29 -21.98 60 -2.82 9.35 -5.62 19.25 -6.24 22 -2.55 11.35&#xA;-6.01 33.83 -7.1 46.13 -.89 10 -.89 15.84 -.01 24.5 .64 6.26 2.51 16.55&#xA;4.15 22.87 1.8 6.94 4.96 15.5 7.95 21.58 3.53 7.17 6.83 12.1 11.45 17.08&#xA;3.57 3.85 9.85 9.33 13.97 12.18 4.12 2.85 10.43 6.49 14.02 8.11 11.69 5.24&#xA;25.31 9.05 36.46 10.2 6.56 .67 16.99 .83 27.12 .42 9.06 -.37 19.95 -1.11&#xA;24.19 -1.64 12.49 -1.57 50.19 -10.4 65.49 -15.36 15.78 -5.11 43.85 -15.79&#xA;61.35 -23.35 17 -7.34 49.16 -22.84 68.5 -33 27.56 -14.48 45.41 -24.56 73&#xA;-41.21 35.12 -21.2 46.58 -28.46 76.92 -48.8 27.05 -18.14 46.98 -32 66.82&#xA;-46.49 6.46 -4.71 12.67 -8.87 13.8 -9.23 1.24 -.39 2.69 -.19 3.47 .46 .98&#xA;.81 4.55 -1.44 15.08 -9.14 7.65 -5.6 16.16 -11.66 18.91 -13.47 2.75 -1.81&#xA;6.04 -4.02 7.32 -4.91 2.25 -1.57 2.27 -1.68 .5 -3.65 -1.78 -1.98 -1.74&#xA;-2.09 1.68 -4.83 1.92 -1.54 13.4 -10.57 25.5 -20.06 22.97 -18.03 32.04&#xA;-25.44 77.48 -63.35 28.44 -23.73 81.45 -69.74 102.57 -89.03 6.63 -6.05&#xA;16.98 -15.47 23 -20.93 28.97 -26.26 82.5 -77.53 125.33 -120.04 26.06 -25.87&#xA;57.11 -57.44 69 -70.16 11.89 -12.72 29.27 -31.18 38.62 -41.03 37.92 -39.94&#xA;93.83 -102.22 125.5 -139.8 6.88 -8.16 17.48 -20.73 23.56 -27.94 21.22&#xA;-25.14 36.45 -44.55 36.69 -46.76 .19 -1.74 -1.57 -3.58 -8.13 -8.5 -4.61&#xA;-3.45 -10.99 -8.77 -14.18 -11.81 -3.19 -3.04 -6.64 -5.53 -7.67 -5.53 -1.03&#xA;0 -3.71 1.91 -5.96 4.25z M1566.37 974 c0 5.77 .17 8.14 .37 5.25 .2 -2.89 .2&#xA;-7.61 0 -10.5 -.2 -2.89 -.37 -.52 -.37 5.25z" fill="#000000" fill-rule="evenodd" stroke="#000000" stroke-linejoin="round" stroke-width="0.80"/>
<path d="M985.79 381.55 c-.33 .33 -3.45 .77 -6.94 .99 -3.49 .21 -9.04 .66 -12.34 .99&#xA;-3.3 .33 -8.25 .79 -11 1.02 -18.69 1.58 -36.44 4.27 -59.77 9.06 -11.98 2.46&#xA;-25.7 5.61 -30.5 7 -4.8 1.39 -14.13 4.09 -20.73 6 -6.6 1.91 -17.85 5.55 -25&#xA;8.09 -15.41 5.47 -38.69 15.09 -54 22.31 -12.45 5.87 -37.28 19.08 -48.5 25.8&#xA;-13.05 7.81 -44.42 28.72 -55.16 36.76 -21.32 15.97 -58.18 48.98 -76.44&#xA;68.43 -28.67 30.55 -55.94 66.07 -76.42 99.5 -16.69 27.25 -28.91 51.1 -41.41&#xA;80.79 -6.93 16.46 -18.57 46.95 -18.57 48.63 0 .57 -2.45 9.5 -5.43 19.85&#xA;-2.99 10.35 -7.47 28.92 -9.97 41.27 -5.01 24.81 -7.35 40.41 -9.07 60.46&#xA;-.24 2.75 -.68 7.92 -1 11.5 -.31 3.58 -.86 9.88 -1.21 14 -.8 9.28 -.76&#xA;57.15 .06 66 .33 3.58 .85 9.42 1.15 13 .3 3.58 .77 8.75 1.05 11.5 .28 2.75&#xA;.66 6.58 .85 8.5 .19 1.92 .61 5.08 .94 7 .33 1.92 .88 6.42 1.21 10 .94 10&#xA;1.04 10.54 4.38 26 1.72 7.97 3.33 15.62 3.56 17 .23 1.38 1.36 6.55 2.5 11.5&#xA;2.44 10.57 7.97 28.68 15.56 51 2.99 8.8 5.44 17.23 5.43 18.74 -.01 1.51 .74&#xA;3.62 1.66 4.69 .92 1.08 4 7.72 6.83 14.76 2.84 7.04 6.07 14.61 7.19 16.81&#xA;1.12 2.2 2.6 5.8 3.29 8 .69 2.2 1.99 4.79 2.69 5.62 .7 .82 4.24 7.23 8.06&#xA;14.38 7.98 14.94 24.69 42.85 33.54 56 13.91 20.68 26.7 37.34 42.32 55.14&#xA;21.35 24.32 33.54 37.12 46.77 49.12 17.94 16.28 36.48 31.85 48.63 40.87&#xA;21.13 15.68 50.53 34.74 73.76 47.82 5.65 3.18 10.69 6.52 11.22 7.42 .72&#xA;1.24 .96 1.36 .99 .5 .02 -.63 1.09 -1.41 2.37 -1.73 1.29 -.32 7.93 -4.76&#xA;14.77 -9.86 6.83 -5.1 14.05 -10.36 16.03 -11.7 1.98 -1.34 4.13 -3.27 4.77&#xA;-4.29 .64 -1.02 .71 -2.51 .35 -3.09 -.36 -.58 -3.35 -2.15 -6.83 -3.72 -3.48&#xA;-1.56 -15.92 -8.32 -27.63 -15.02 -47.26 -27.02 -84.96 -55.37 -122.13 -91.84&#xA;-12.49 -12.25 -37.76 -40.81 -48.78 -55.11 -10.26 -13.33 -29.23 -41.68 -38.9&#xA;-58.13 -4.85 -8.25 -12.2 -21.83 -16.33 -30.18 -9.28 -18.74 -19.18 -41.57&#xA;-26.29 -60.69 -2.97 -7.97 -7.85 -23.05 -10.84 -33.5 -2.99 -10.45 -5.68&#xA;-20.12 -5.96 -21.5 -3.53 -17.04 -8.48 -42.46 -8.96 -46 -.34 -2.47 -1.02&#xA;-6.97 -1.52 -10 -.5 -3.03 -.95 -6.17 -1.01 -7 -.05 -.83 -.29 -3.75 -.53&#xA;-6.5 -1.61 -18.62 -1.94 -28.81 -1.96 -59 -.01 -30.22 .49 -45.13 1.91 -56.5&#xA;.24 -1.92 .67 -6.42 .95 -10 .28 -3.58 .73 -8.75 .99 -11.5 .65 -6.87 10.15&#xA;-52.96 12.51 -60.7 1.06 -3.46 3.55 -11.92 5.53 -18.8 4.65 -16.11 12.02&#xA;-36.48 19.65 -54.32 6.99 -16.33 25.63 -53.99 29.73 -60.06 1.53 -2.27 4.3&#xA;-6.82 6.14 -10.12 3.13 -5.6 11.79 -19.14 16.63 -26 21.49 -30.49 24.23&#xA;-34.05 39.76 -51.65 21.04 -23.84 31.83 -34.89 49.39 -50.57 18.98 -16.95&#xA;28.31 -24.7 40.21 -33.4 14.64 -10.69 35.68 -24.71 49 -32.63 15 -8.92 45.33&#xA;-23.97 66 -32.74 19.25 -8.17 40.79 -15.78 61 -21.57 21.97 -6.29 62.37&#xA;-14.72 79 -16.48 3.02 -.32 7.98 -.78 11 -1.02 3.02 -.24 8.42 -.68 12 -.98&#xA;12.57 -1.06 21.7 -1.39 42.5 -1.53 18.46 -.12 32.54 .29 54 1.58 12.64 .76&#xA;21.34 1.64 30.5 3.07 13.56 2.12 52.31 10.04 60 12.26 22.35 6.46 30.29 8.96&#xA;45.5 14.36 9.35 3.32 18.58 6.83 20.5 7.79 1.92 .97 6.65 2.99 10.5 4.49 9.55&#xA;3.74 45.53 21.73 59 29.5 14.03 8.1 39.78 25.29 54.21 36.18 18.69 14.12&#xA;34.78 28.25 56.13 49.28 25.02 24.66 48.4 51.82 62.17 72.24 1.92 2.85 4.52&#xA;5.74 5.76 6.42 2.03 1.11 3.04 .68 10 -4.18 4.26 -2.98 11.56 -7.44 16.24&#xA;-9.93 5.89 -3.13 8.59 -5.14 8.79 -6.54 .16 -1.12 -1.59 -4.94 -3.89 -8.5&#xA;-2.3 -3.56 -8.24 -11.87 -13.2 -18.47 -17.41 -23.15 -41.28 -49.38 -67.15&#xA;-73.77 -9.93 -9.36 -26.15 -23.52 -36.05 -31.45 -18.46 -14.79 -43.31 -31.85&#xA;-74.16 -50.89 -5.59 -3.45 -13.91 -8.15 -18.5 -10.45 -4.59 -2.3 -9.68 -5.13&#xA;-11.32 -6.29 -1.64 -1.16 -5.01 -2.85 -7.5 -3.77 -5.84 -2.14 -28.92 -12.12&#xA;-36.02 -15.58 -3.03 -1.47 -8.2 -3.43 -11.5 -4.36 -3.3 -.93 -10.08 -3.27&#xA;-15.06 -5.21 -4.98 -1.94 -12.63 -4.51 -17 -5.72 -4.37 -1.21 -13.12 -3.77&#xA;-19.44 -5.67 -11.55 -3.49 -40.01 -9.9 -56.6 -12.75 -8.32 -1.43 -21.68 -3.2&#xA;-30.9 -4.1 -2.2 -.21 -6.47 -.63 -9.5 -.93 -10.48 -1.03 -18.52 -1.79 -23&#xA;-2.16 -8.64 -.71 -66.62 -1.44 -67.21 -.85z M1587.05 857.59 c-7.32 3.32&#xA;-17.63 6.37 -22.64 6.69 -2.25 .14 -5.15 .97 -6.45 1.83 l-2.36 1.56 2.19&#xA;11.41 c3.9 20.35 4.67 25.56 5.78 38.91 .25 3.02 .7 8.42 1 12 .3 3.58 .7 9.2&#xA;.88 12.5 .46 8.07 .48 56.35 .03 64.5 -.42 7.64 -1.54 22.15 -2.94 38.31&#xA;-1.08 12.43 -11.07 59.42 -17.07 80.31 -3.02 10.52 -7.74 25.5 -10.48 33.3&#xA;-9.5 27.01 -23.4 57 -40.28 86.91 -10.86 19.24 -21.56 35.63 -35.04 53.67&#xA;-18.07 24.17 -28.61 36.46 -49.66 57.9 -11.83 12.04 -27.91 27.39 -35.72 34.1&#xA;-12.73 10.93 -36.21 29.15 -49.78 38.64 -8.86 6.19 -28.7 18.5 -40 24.83&#xA;-13.98 7.82 -44.93 23.04 -54.98 27.03 -4.24 1.68 -9.35 3.9 -11.36 4.93&#xA;-5.12 2.61 -38.6 14.08 -57.16 19.58 -8.53 2.53 -25.4 6.56 -37.5 8.96 -12.1&#xA;2.4 -24.47 4.69 -27.5 5.09 -3.03 .4 -6.62 .89 -8 1.09 -7.07 1.04 -13.69&#xA;1.73 -29 3.06 -10.71 .93 -65.87 .91 -80.5 -.03 -14.56 -.93 -20.97 -1.43 -27&#xA;-2.11 -2.75 -.31 -5.67 -.61 -6.5 -.68 -.83 -.06 -3.75 -.52 -6.5 -1.02 -2.75&#xA;-.5 -6.35 -1.13 -8 -1.42 -11.79 -2 -36.37 -6.91 -43 -8.58 -14.55 -3.67&#xA;-41.53 -11.86 -46.08 -14 l-4.48 -2.11 -4.48 2.87 c-6.75 4.34 -35.36 25.4&#xA;-36.08 26.56 -.35 .56 .09 1.78 1.12 2.76 2.15 2.05 26.81 11.23 42.99 16.01&#xA;6.05 1.79 15.95 4.76 22 6.6 6.05 1.84 22.02 5.63 35.5 8.42 13.48 2.79 25.44&#xA;5.25 26.6 5.46 3.53 .65 11.59 1.6 17.9 2.11 3.3 .27 8.25 .71 11 .99 2.75&#xA;.28 7.25 .7 10 .94 2.75 .24 6.58 .66 8.5 .94 9.82 1.41 21.69 1.9 43 1.81&#xA;12.92 -.06 26.42 -.35 30 -.66 3.58 -.3 9.42 -.79 13 -1.08 3.58 -.29 8.53&#xA;-.74 11 -1 2.47 -.26 7.2 -.74 10.5 -1.07 3.3 -.33 7.58 -.78 9.5 -.98 1.92&#xA;-.21 5.53 -.59 8 -.86 7.76 -.82 31.76 -5.27 51 -9.46 10.17 -2.22 22.47 -5.4&#xA;27.31 -7.07 4.85 -1.67 12.27 -3.93 16.5 -5.01 9.62 -2.46 32.9 -11.1 53.19&#xA;-19.72 18.02 -7.66 44.59 -20.78 59.84 -29.55 13.15 -7.56 39.12 -24.05 53.16&#xA;-33.75 5.78 -3.99 15.67 -11.37 21.99 -16.39 13.01 -10.34 42.24 -36.22 55.06&#xA;-48.76 4.7 -4.6 13.04 -13.32 18.52 -19.37 10.51 -11.6 26.56 -30.6 35.05&#xA;-41.5 7.06 -9.06 19.22 -26.14 24.64 -34.62 18.46 -28.85 30.36 -50.15 41.27&#xA;-73.88 6.88 -14.97 16.87 -38.88 21.35 -51.13 6.32 -17.28 15.59 -49.52 19.08&#xA;-66.37 1.77 -8.53 4.29 -20.27 5.6 -26.09 1.32 -5.83 2.63 -12.35 2.93 -14.5&#xA;.3 -2.15 .81 -5.48 1.13 -7.41 .33 -1.92 .78 -5.75 1.01 -8.5 .45 -5.4 .82&#xA;-9.39 1.82 -19.5 1.18 -11.97 1.48 -15.44 2.19 -26 .8 -11.84 .76 -46.63 -.07&#xA;-58 -.99 -13.6 -1.99 -25.37 -3.14 -37 -.24 -2.48 -.63 -6.75 -.86 -9.5 -.37&#xA;-4.39 -1.12 -10.58 -2.08 -17 -.64 -4.32 -5.38 -24.15 -6.39 -26.75 -.63&#xA;-1.61 -1.8 -2.73 -2.84 -2.69 -.98 .03 -4.23 1.17 -7.23 2.53z" fill="#000000" fill-rule="evenodd" stroke="#000000" stroke-linejoin="round" stroke-width="0.80"/>
</svg>
